{
	"asset":{
		"generator":"Khronos glTF Blender I/O v4.3.47",
		"version":"2.0"
	},
	"extensionsUsed":[
		"KHR_materials_specular",
		"KHR_materials_unlit",
		"KHR_texture_transform"
	],
	"extensionsRequired":[
		"KHR_texture_transform"
	],
	"scene":0,
	"scenes":[
		{
			"name":"Scene",
			"nodes":[
				0,
				1,
				2,
				3,
				4,
				5,
				6,
				7
			]
		}
	],
	"nodes":[
		{
			"mesh":0,
			"name":"Envolvente",
			"rotation":[
				0.7071068286895752,
				0,
				0,
				0.7071068286895752
			]
		},
		{
			"mesh":1,
			"name":"Mesh249 Group151 Group150 Group75 Model",
			"rotation":[
				0.7071068286895752,
				0,
				0,
				0.7071068286895752
			]
		},
		{
			"mesh":2,
			"name":"Mesh411 Group231 Group230 Group75 Model",
			"rotation":[
				0.7071068286895752,
				0,
				0,
				0.7071068286895752
			],
			"translation":[
				0,
				0.009999999776482582,
				0
			]
		},
		{
			"mesh":3,
			"name":"Mesh419 Group242 Group232 Group230 Group75 Model",
			"rotation":[
				0.7071068286895752,
				0,
				0,
				0.7071068286895752
			]
		},
		{
			"mesh":4,
			"name":"Mesh99 Group93 Group92 Group76 Group75 Model",
			"rotation":[
				0.7071068286895752,
				0,
				0,
				0.7071068286895752
			]
		},
		{
			"mesh":5,
			"name":"Mesh411 Group231 Group230 Group75 Model.069",
			"rotation":[
				0.7071068286895752,
				0,
				0,
				0.7071068286895752
			]
		},
		{
			"mesh":6,
			"name":"Mesh366 Group190 Group189 Group173 Group75 Model",
			"rotation":[
				0.7071068286895752,
				0,
				0,
				0.7071068286895752
			]
		},
		{
			"mesh":7,
			"name":"Mesh514 Group247 Group246 Group230 Group75 Model",
			"rotation":[
				0.7071068286895752,
				0,
				0,
				0.7071068286895752
			]
		}
	],
	"materials":[
		{
			"doubleSided":true,
			"extensions":{
				"KHR_materials_specular":{
					"specularFactor":0.6600000262260437
				}
			},
			"name":"ENVOLVENTE",
			"pbrMetallicRoughness":{
				"baseColorTexture":{
					"index":0
				},
				"metallicFactor":0
			}
		},
		{
			"doubleSided":true,
			"extensions":{
				"KHR_materials_unlit":{}
			},
			"name":"PORTAO_MADEIRA",
			"pbrMetallicRoughness":{
				"baseColorTexture":{
					"index":1
				},
				"metallicFactor":0,
				"roughnessFactor":0.9
			}
		},
		{
			"doubleSided":true,
			"name":"RELVA",
			"normalTexture":{
				"extensions":{
					"KHR_texture_transform":{
						"offset":[
							0,
							0.9900000002235174
						],
						"scale":[
							0.009999999776482582,
							0.009999999776482582
						]
					}
				},
				"index":2,
				"scale":5
			},
			"pbrMetallicRoughness":{
				"baseColorTexture":{
					"extensions":{
						"KHR_texture_transform":{
							"offset":[
								0,
								0.9900000002235174
							],
							"scale":[
								0.009999999776482582,
								0.009999999776482582
							]
						}
					},
					"index":3
				},
				"metallicFactor":0,
				"metallicRoughnessTexture":{
					"extensions":{
						"KHR_texture_transform":{
							"offset":[
								0,
								0.9900000002235174
							],
							"scale":[
								0.009999999776482582,
								0.009999999776482582
							]
						}
					},
					"index":4
				}
			}
		},
		{
			"doubleSided":true,
			"extensions":{
				"KHR_materials_unlit":{}
			},
			"name":"VIDRO",
			"pbrMetallicRoughness":{
				"baseColorTexture":{
					"index":5
				},
				"metallicFactor":0,
				"roughnessFactor":0.9
			}
		},
		{
			"doubleSided":true,
			"name":"ALUMINIO",
			"pbrMetallicRoughness":{
				"baseColorFactor":[
					0.5175853371620178,
					0.5175853371620178,
					0.5175853371620178,
					1
				],
				"metallicFactor":0.5954545736312866,
				"roughnessFactor":0.42272722721099854
			}
		},
		{
			"doubleSided":true,
			"extensions":{
				"KHR_materials_specular":{
					"specularFactor":0.6600000262260437
				}
			},
			"name":"BET\u00c3O",
			"normalTexture":{
				"extensions":{
					"KHR_texture_transform":{
						"offset":[
							0,
							-19.100000381469727
						],
						"scale":[
							50,
							20.100000381469727
						]
					}
				},
				"index":6
			},
			"pbrMetallicRoughness":{
				"baseColorTexture":{
					"extensions":{
						"KHR_texture_transform":{
							"offset":[
								0,
								-19.100000381469727
							],
							"scale":[
								50,
								20.100000381469727
							]
						}
					},
					"index":7
				},
				"metallicFactor":0
			}
		},
		{
			"doubleSided":true,
			"extensions":{
				"KHR_materials_specular":{
					"specularFactor":0.6600000262260437
				}
			},
			"name":"Color_C08.001",
			"normalTexture":{
				"extensions":{
					"KHR_texture_transform":{
						"offset":[
							0,
							-39
						],
						"scale":[
							40,
							40
						]
					}
				},
				"index":8
			},
			"pbrMetallicRoughness":{
				"baseColorTexture":{
					"extensions":{
						"KHR_texture_transform":{
							"offset":[
								0,
								-39
							],
							"scale":[
								40,
								40
							]
						}
					},
					"index":9
				},
				"metallicFactor":0,
				"metallicRoughnessTexture":{
					"extensions":{
						"KHR_texture_transform":{
							"offset":[
								0,
								-39
							],
							"scale":[
								40,
								40
							]
						}
					},
					"index":10
				}
			}
		}
	],
	"meshes":[
		{
			"name":"Mesh14 Group4 Group3 Group2 Model",
			"primitives":[
				{
					"attributes":{
						"POSITION":0,
						"NORMAL":1,
						"TEXCOORD_0":2
					},
					"indices":3,
					"material":0
				}
			]
		},
		{
			"name":"Mesh249 Group151 Group150 Group75 Model",
			"primitives":[
				{
					"attributes":{
						"POSITION":4,
						"NORMAL":5,
						"TEXCOORD_0":6
					},
					"indices":7,
					"material":1
				}
			]
		},
		{
			"name":"Mesh411 Group231 Group230 Group75 Model",
			"primitives":[
				{
					"attributes":{
						"POSITION":8,
						"NORMAL":9,
						"TEXCOORD_0":10
					},
					"indices":11,
					"material":2
				}
			]
		},
		{
			"name":"Mesh419 Group242 Group232 Group230 Group75 Model",
			"primitives":[
				{
					"attributes":{
						"POSITION":12,
						"NORMAL":13,
						"TEXCOORD_0":14
					},
					"indices":15,
					"material":3
				}
			]
		},
		{
			"name":"Mesh99 Group93 Group92 Group76 Group75 Model",
			"primitives":[
				{
					"attributes":{
						"POSITION":16,
						"NORMAL":17,
						"TEXCOORD_0":18
					},
					"indices":19,
					"material":4
				}
			]
		},
		{
			"name":"Mesh411 Group231 Group230 Group75 Model.069",
			"primitives":[
				{
					"attributes":{
						"POSITION":20,
						"NORMAL":21,
						"TEXCOORD_0":22
					},
					"indices":23,
					"material":4
				}
			]
		},
		{
			"name":"Mesh366 Group190 Group189 Group173 Group75 Model",
			"primitives":[
				{
					"attributes":{
						"POSITION":24,
						"NORMAL":25,
						"TEXCOORD_0":26,
						"TEXCOORD_1":27
					},
					"indices":28,
					"material":5
				}
			]
		},
		{
			"name":"Mesh514 Group247 Group246 Group230 Group75 Model",
			"primitives":[
				{
					"attributes":{
						"POSITION":29,
						"NORMAL":30,
						"TEXCOORD_0":31
					},
					"indices":32,
					"material":6
				},
				{
					"attributes":{
						"POSITION":33,
						"NORMAL":34,
						"TEXCOORD_0":35
					},
					"indices":36,
					"material":5
				}
			]
		}
	],
	"textures":[
		{
			"sampler":0,
			"source":0
		},
		{
			"sampler":0,
			"source":1
		},
		{
			"sampler":0,
			"source":2
		},
		{
			"sampler":0,
			"source":3
		},
		{
			"sampler":0,
			"source":4
		},
		{
			"sampler":0,
			"source":5
		},
		{
			"sampler":0,
			"source":6
		},
		{
			"sampler":0,
			"source":7
		},
		{
			"sampler":0,
			"source":8
		},
		{
			"sampler":0,
			"source":9
		},
		{
			"sampler":0,
			"source":10
		}
	],
	"images":[
		{
			"mimeType":"image/png",
			"name":"ENVOLVENTE",
			"uri":"textures/ENVOLVENTE.png"
		},
		{
			"mimeType":"image/png",
			"name":"PORTAO_MADEIRA",
			"uri":"textures/PORTAO_MADEIRA.png"
		},
		{
			"mimeType":"image/jpeg",
			"name":"Grass001_1K-JPG_NormalGL",
			"uri":"textures/Grass001_1K-JPG_NormalGL.jpg"
		},
		{
			"mimeType":"image/jpeg",
			"name":"Grass001_1K-JPG_Color",
			"uri":"textures/Grass001_1K-JPG_Color.jpg"
		},
		{
			"mimeType":"image/png",
			"name":"Grass001_1K-JPG_Roughness",
			"uri":"textures/Grass001_1K-JPG_Roughness.png"
		},
		{
			"mimeType":"image/png",
			"name":"VIDROS",
			"uri":"textures/VIDROS.png"
		},
		{
			"mimeType":"image/jpeg",
			"name":"concrete_wall_008_nor_gl_1k",
			"uri":"textures/concrete_wall_008_nor_gl_1k.jpg"
		},
		{
			"mimeType":"image/jpeg",
			"name":"concrete_wall_008_diff_1k",
			"uri":"textures/concrete_wall_008_diff_1k.jpg"
		},
		{
			"mimeType":"image/png",
			"name":"laminate_floor_02_nor_gl_1k.exr",
			"uri":"textures/laminate_floor_02_nor_gl_1k_exr.png"
		},
		{
			"mimeType":"image/jpeg",
			"name":"laminate_floor_02_diff_1k",
			"uri":"textures/laminate_floor_02_diff_1k.jpg"
		},
		{
			"mimeType":"image/png",
			"name":"laminate_floor_02_rough_1k.exr",
			"uri":"textures/laminate_floor_02_rough_1k_exr.png"
		}
	],
	"accessors":[
		{
			"bufferView":0,
			"componentType":5126,
			"count":108046,
			"max":[
				10.765000343322754,
				17.91819953918457,
				0.18000000715255737
			],
			"min":[
				-10.765000343322754,
				-17.91830062866211,
				-11.710000038146973
			],
			"type":"VEC3"
		},
		{
			"bufferView":1,
			"componentType":5126,
			"count":108046,
			"type":"VEC3"
		},
		{
			"bufferView":2,
			"componentType":5126,
			"count":108046,
			"type":"VEC2"
		},
		{
			"bufferView":3,
			"componentType":5125,
			"count":351087,
			"type":"SCALAR"
		},
		{
			"bufferView":4,
			"componentType":5126,
			"count":24,
			"max":[
				3.216510057449341,
				8.968310356140137,
				2.6710699488818532e-14
			],
			"min":[
				-4.906509876251221,
				8.918310165405273,
				-2.2200000286102295
			],
			"type":"VEC3"
		},
		{
			"bufferView":5,
			"componentType":5126,
			"count":24,
			"type":"VEC3"
		},
		{
			"bufferView":6,
			"componentType":5126,
			"count":24,
			"type":"VEC2"
		},
		{
			"bufferView":7,
			"componentType":5123,
			"count":36,
			"type":"SCALAR"
		},
		{
			"bufferView":8,
			"componentType":5126,
			"count":14,
			"max":[
				9.116169929504395,
				-0.07524359971284866,
				-2.4700000286102295
			],
			"min":[
				-4.7399702072143555,
				-15.816499710083008,
				-2.4700000286102295
			],
			"type":"VEC3"
		},
		{
			"bufferView":9,
			"componentType":5126,
			"count":14,
			"type":"VEC3"
		},
		{
			"bufferView":10,
			"componentType":5126,
			"count":14,
			"type":"VEC2"
		},
		{
			"bufferView":11,
			"componentType":5123,
			"count":36,
			"type":"SCALAR"
		},
		{
			"bufferView":12,
			"componentType":5126,
			"count":1340,
			"max":[
				6.427639961242676,
				9.865139961242676,
				-1.7733700275421143
			],
			"min":[
				-5.077730178833008,
				-7.705389976501465,
				-12.140000343322754
			],
			"type":"VEC3"
		},
		{
			"bufferView":13,
			"componentType":5126,
			"count":1340,
			"type":"VEC3"
		},
		{
			"bufferView":14,
			"componentType":5126,
			"count":1340,
			"type":"VEC2"
		},
		{
			"bufferView":15,
			"componentType":5123,
			"count":2070,
			"type":"SCALAR"
		},
		{
			"bufferView":16,
			"componentType":5126,
			"count":105946,
			"max":[
				6.463970184326172,
				10.937700271606445,
				2.7613099591703057e-14
			],
			"min":[
				-5.397630214691162,
				-7.722479820251465,
				-13.050000190734863
			],
			"type":"VEC3"
		},
		{
			"bufferView":17,
			"componentType":5126,
			"count":105946,
			"type":"VEC3"
		},
		{
			"bufferView":18,
			"componentType":5126,
			"count":105946,
			"type":"VEC2"
		},
		{
			"bufferView":19,
			"componentType":5125,
			"count":207252,
			"type":"SCALAR"
		},
		{
			"bufferView":20,
			"componentType":5126,
			"count":48,
			"max":[
				2.1028900146484375,
				0.5052710175514221,
				-11.949999809265137
			],
			"min":[
				-1.0425000190734863,
				-2.206199884414673,
				-13.050000190734863
			],
			"type":"VEC3"
		},
		{
			"bufferView":21,
			"componentType":5126,
			"count":48,
			"type":"VEC3"
		},
		{
			"bufferView":22,
			"componentType":5126,
			"count":48,
			"type":"VEC2"
		},
		{
			"bufferView":23,
			"componentType":5123,
			"count":72,
			"type":"SCALAR"
		},
		{
			"bufferView":24,
			"componentType":5126,
			"count":4796,
			"max":[
				9.714420318603516,
				11.027400016784668,
				0.15000000596046448
			],
			"min":[
				-5.377950191497803,
				-16.158300399780273,
				-12.199999809265137
			],
			"type":"VEC3"
		},
		{
			"bufferView":25,
			"componentType":5126,
			"count":4796,
			"type":"VEC3"
		},
		{
			"bufferView":26,
			"componentType":5126,
			"count":4796,
			"type":"VEC2"
		},
		{
			"bufferView":27,
			"componentType":5126,
			"count":4796,
			"type":"VEC2"
		},
		{
			"bufferView":28,
			"componentType":5123,
			"count":9291,
			"type":"SCALAR"
		},
		{
			"bufferView":29,
			"componentType":5126,
			"count":422,
			"max":[
				6.444540023803711,
				10.937700271606445,
				-2.7899999618530273
			],
			"min":[
				-5.127920150756836,
				-7.662489891052246,
				-9.170000076293945
			],
			"type":"VEC3"
		},
		{
			"bufferView":30,
			"componentType":5126,
			"count":422,
			"type":"VEC3"
		},
		{
			"bufferView":31,
			"componentType":5126,
			"count":422,
			"type":"VEC2"
		},
		{
			"bufferView":32,
			"componentType":5123,
			"count":864,
			"type":"SCALAR"
		},
		{
			"bufferView":33,
			"componentType":5126,
			"count":12,
			"max":[
				3.6534199714660645,
				10.937700271606445,
				-2.7899999618530273
			],
			"min":[
				-5.0950398445129395,
				9.285900115966797,
				-9.170000076293945
			],
			"type":"VEC3"
		},
		{
			"bufferView":34,
			"componentType":5126,
			"count":12,
			"type":"VEC3"
		},
		{
			"bufferView":35,
			"componentType":5126,
			"count":12,
			"type":"VEC2"
		},
		{
			"bufferView":36,
			"componentType":5123,
			"count":18,
			"type":"SCALAR"
		}
	],
	"bufferViews":[
		{
			"buffer":0,
			"byteLength":1296552,
			"byteOffset":0,
			"target":34962
		},
		{
			"buffer":0,
			"byteLength":1296552,
			"byteOffset":1296552,
			"target":34962
		},
		{
			"buffer":0,
			"byteLength":864368,
			"byteOffset":2593104,
			"target":34962
		},
		{
			"buffer":0,
			"byteLength":1404348,
			"byteOffset":3457472,
			"target":34963
		},
		{
			"buffer":0,
			"byteLength":288,
			"byteOffset":4861820,
			"target":34962
		},
		{
			"buffer":0,
			"byteLength":288,
			"byteOffset":4862108,
			"target":34962
		},
		{
			"buffer":0,
			"byteLength":192,
			"byteOffset":4862396,
			"target":34962
		},
		{
			"buffer":0,
			"byteLength":72,
			"byteOffset":4862588,
			"target":34963
		},
		{
			"buffer":0,
			"byteLength":168,
			"byteOffset":4862660,
			"target":34962
		},
		{
			"buffer":0,
			"byteLength":168,
			"byteOffset":4862828,
			"target":34962
		},
		{
			"buffer":0,
			"byteLength":112,
			"byteOffset":4862996,
			"target":34962
		},
		{
			"buffer":0,
			"byteLength":72,
			"byteOffset":4863108,
			"target":34963
		},
		{
			"buffer":0,
			"byteLength":16080,
			"byteOffset":4863180,
			"target":34962
		},
		{
			"buffer":0,
			"byteLength":16080,
			"byteOffset":4879260,
			"target":34962
		},
		{
			"buffer":0,
			"byteLength":10720,
			"byteOffset":4895340,
			"target":34962
		},
		{
			"buffer":0,
			"byteLength":4140,
			"byteOffset":4906060,
			"target":34963
		},
		{
			"buffer":0,
			"byteLength":1271352,
			"byteOffset":4910200,
			"target":34962
		},
		{
			"buffer":0,
			"byteLength":1271352,
			"byteOffset":6181552,
			"target":34962
		},
		{
			"buffer":0,
			"byteLength":847568,
			"byteOffset":7452904,
			"target":34962
		},
		{
			"buffer":0,
			"byteLength":829008,
			"byteOffset":8300472,
			"target":34963
		},
		{
			"buffer":0,
			"byteLength":576,
			"byteOffset":9129480,
			"target":34962
		},
		{
			"buffer":0,
			"byteLength":576,
			"byteOffset":9130056,
			"target":34962
		},
		{
			"buffer":0,
			"byteLength":384,
			"byteOffset":9130632,
			"target":34962
		},
		{
			"buffer":0,
			"byteLength":144,
			"byteOffset":9131016,
			"target":34963
		},
		{
			"buffer":0,
			"byteLength":57552,
			"byteOffset":9131160,
			"target":34962
		},
		{
			"buffer":0,
			"byteLength":57552,
			"byteOffset":9188712,
			"target":34962
		},
		{
			"buffer":0,
			"byteLength":38368,
			"byteOffset":9246264,
			"target":34962
		},
		{
			"buffer":0,
			"byteLength":38368,
			"byteOffset":9284632,
			"target":34962
		},
		{
			"buffer":0,
			"byteLength":18582,
			"byteOffset":9323000,
			"target":34963
		},
		{
			"buffer":0,
			"byteLength":5064,
			"byteOffset":9341584,
			"target":34962
		},
		{
			"buffer":0,
			"byteLength":5064,
			"byteOffset":9346648,
			"target":34962
		},
		{
			"buffer":0,
			"byteLength":3376,
			"byteOffset":9351712,
			"target":34962
		},
		{
			"buffer":0,
			"byteLength":1728,
			"byteOffset":9355088,
			"target":34963
		},
		{
			"buffer":0,
			"byteLength":144,
			"byteOffset":9356816,
			"target":34962
		},
		{
			"buffer":0,
			"byteLength":144,
			"byteOffset":9356960,
			"target":34962
		},
		{
			"buffer":0,
			"byteLength":96,
			"byteOffset":9357104,
			"target":34962
		},
		{
			"buffer":0,
			"byteLength":36,
			"byteOffset":9357200,
			"target":34963
		}
	],
	"samplers":[
		{
			"magFilter":9729,
			"minFilter":9987
		}
	],
	"buffers":[
		{
			"byteLength":9357236,
			"uri":"model4.bin"
		}
	]
}
