{
	"asset":{
		"generator":"Khronos glTF Blender I/O v4.3.47",
		"version":"2.0"
	},
	"extensionsUsed":[
		"KHR_materials_specular",
		"KHR_materials_ior"
	],
	"scene":0,
	"scenes":[
		{
			"name":"Scene",
			"nodes":[
				0,
				1
			]
		}
	],
	"nodes":[
		{
			"mesh":0,
			"name":"Mona_Lisa,_by_Leonardo_da_Vinci,_from_C2RMF_retouched",
			"rotation":[
				0.7071068286895752,
				0,
				0,
				0.7071068286895752
			],
			"scale":[
				0.09760826826095581,
				0.09530805051326752,
				0.10079826414585114
			]
		},
		{
			"mesh":1,
			"name":"Plane_Plane.001",
			"rotation":[
				0.7071068286895752,
				0,
				0,
				0.7071068286895752
			],
			"scale":[
				0.09453121572732925,
				0.09530805051326752,
				0.10081419348716736
			]
		}
	],
	"materials":[
		{
			"doubleSided":true,
			"name":"Mona_Lisa_Obverse",
			"pbrMetallicRoughness":{
				"baseColorTexture":{
					"index":0
				},
				"metallicFactor":0,
				"roughnessFactor":0.4307900071144104
			}
		},
		{
			"doubleSided":true,
			"name":"Mona_Lisa_Reverse",
			"pbrMetallicRoughness":{
				"baseColorTexture":{
					"index":1
				},
				"metallicFactor":0,
				"roughnessFactor":0.4307900071144104
			}
		},
		{
			"doubleSided":true,
			"name":"Gold",
			"normalTexture":{
				"index":2
			},
			"pbrMetallicRoughness":{
				"baseColorTexture":{
					"index":3
				},
				"metallicFactor":0.5,
				"metallicRoughnessTexture":{
					"index":4
				}
			}
		},
		{
			"doubleSided":true,
			"extensions":{
				"KHR_materials_specular":{
					"specularFactor":0
				},
				"KHR_materials_ior":{
					"ior":1.4500000476837158
				}
			},
			"name":"Wood",
			"normalTexture":{
				"index":5
			},
			"pbrMetallicRoughness":{
				"baseColorTexture":{
					"index":6
				},
				"metallicFactor":0,
				"metallicRoughnessTexture":{
					"index":7
				}
			}
		}
	],
	"meshes":[
		{
			"name":"Mona_Lisa,_by_Leonardo_da_Vinci,_from_C2RMF_retouched",
			"primitives":[
				{
					"attributes":{
						"POSITION":0,
						"NORMAL":1,
						"TEXCOORD_0":2
					},
					"indices":3,
					"material":0
				},
				{
					"attributes":{
						"POSITION":4,
						"NORMAL":5,
						"TEXCOORD_0":6
					},
					"indices":7,
					"material":1
				}
			]
		},
		{
			"name":"Plane_Plane.001",
			"primitives":[
				{
					"attributes":{
						"POSITION":8,
						"NORMAL":9,
						"TEXCOORD_0":10
					},
					"indices":11,
					"material":2
				},
				{
					"attributes":{
						"POSITION":12,
						"NORMAL":13,
						"TEXCOORD_0":14
					},
					"indices":15,
					"material":3
				}
			]
		}
	],
	"textures":[
		{
			"sampler":0,
			"source":0
		},
		{
			"sampler":0,
			"source":1
		},
		{
			"sampler":0,
			"source":2
		},
		{
			"sampler":0,
			"source":3
		},
		{
			"sampler":0,
			"source":4
		},
		{
			"sampler":0,
			"source":5
		},
		{
			"sampler":0,
			"source":6
		},
		{
			"sampler":0,
			"source":7
		}
	],
	"images":[
		{
			"mimeType":"image/jpeg",
			"name":"mona-lisa-8k",
			"uri":"textures/mona-lisa-8k.jpg"
		},
		{
			"mimeType":"image/jpeg",
			"name":"mona-lisa-reverse-2K",
			"uri":"textures/mona-lisa-reverse-2K.jpg"
		},
		{
			"mimeType":"image/jpeg",
			"name":"Metal07_nrm",
			"uri":"textures/Metal07_nrm.jpg"
		},
		{
			"mimeType":"image/jpeg",
			"name":"Metal07_col",
			"uri":"textures/Metal07_col.jpg"
		},
		{
			"mimeType":"image/png",
			"name":"Metal07_rgh",
			"uri":"textures/Metal07_rgh.png"
		},
		{
			"mimeType":"image/jpeg",
			"name":"Wood28_nrm",
			"uri":"textures/Wood28_nrm.jpg"
		},
		{
			"mimeType":"image/jpeg",
			"name":"Wood28_col",
			"uri":"textures/Wood28_col.jpg"
		},
		{
			"mimeType":"image/png",
			"name":"Wood28_rgh",
			"uri":"textures/Wood28_rgh.png"
		}
	],
	"accessors":[
		{
			"bufferView":0,
			"componentType":5126,
			"count":4,
			"max":[
				1.9796149730682373,
				0.13546699285507202,
				2.957643985748291
			],
			"min":[
				-1.9796149730682373,
				0.13546699285507202,
				-2.957643985748291
			],
			"type":"VEC3"
		},
		{
			"bufferView":1,
			"componentType":5126,
			"count":4,
			"type":"VEC3"
		},
		{
			"bufferView":2,
			"componentType":5126,
			"count":4,
			"type":"VEC2"
		},
		{
			"bufferView":3,
			"componentType":5123,
			"count":6,
			"type":"SCALAR"
		},
		{
			"bufferView":4,
			"componentType":5126,
			"count":92,
			"max":[
				1.9940040111541748,
				0.13546699285507202,
				2.970418930053711
			],
			"min":[
				-1.9940040111541748,
				0.05028500035405159,
				-2.970418930053711
			],
			"type":"VEC3"
		},
		{
			"bufferView":5,
			"componentType":5126,
			"count":92,
			"type":"VEC3"
		},
		{
			"bufferView":6,
			"componentType":5126,
			"count":92,
			"type":"VEC2"
		},
		{
			"bufferView":7,
			"componentType":5123,
			"count":126,
			"type":"SCALAR"
		},
		{
			"bufferView":8,
			"componentType":5126,
			"count":130,
			"max":[
				2.807133913040161,
				0.4365989863872528,
				3.8282699584960938
			],
			"min":[
				-2.807065010070801,
				-0.08671300113201141,
				-3.818589925765991
			],
			"type":"VEC3"
		},
		{
			"bufferView":9,
			"componentType":5126,
			"count":130,
			"type":"VEC3"
		},
		{
			"bufferView":10,
			"componentType":5126,
			"count":130,
			"type":"VEC2"
		},
		{
			"bufferView":11,
			"componentType":5123,
			"count":756,
			"type":"SCALAR"
		},
		{
			"bufferView":12,
			"componentType":5126,
			"count":39,
			"max":[
				2.807133913040161,
				0.11824800074100494,
				3.8282699584960938
			],
			"min":[
				-2.807065010070801,
				-0.3296380043029785,
				-3.818589925765991
			],
			"type":"VEC3"
		},
		{
			"bufferView":13,
			"componentType":5126,
			"count":39,
			"type":"VEC3"
		},
		{
			"bufferView":14,
			"componentType":5126,
			"count":39,
			"type":"VEC2"
		},
		{
			"bufferView":15,
			"componentType":5123,
			"count":210,
			"type":"SCALAR"
		}
	],
	"bufferViews":[
		{
			"buffer":0,
			"byteLength":48,
			"byteOffset":0,
			"target":34962
		},
		{
			"buffer":0,
			"byteLength":48,
			"byteOffset":48,
			"target":34962
		},
		{
			"buffer":0,
			"byteLength":32,
			"byteOffset":96,
			"target":34962
		},
		{
			"buffer":0,
			"byteLength":12,
			"byteOffset":128,
			"target":34963
		},
		{
			"buffer":0,
			"byteLength":1104,
			"byteOffset":140,
			"target":34962
		},
		{
			"buffer":0,
			"byteLength":1104,
			"byteOffset":1244,
			"target":34962
		},
		{
			"buffer":0,
			"byteLength":736,
			"byteOffset":2348,
			"target":34962
		},
		{
			"buffer":0,
			"byteLength":252,
			"byteOffset":3084,
			"target":34963
		},
		{
			"buffer":0,
			"byteLength":1560,
			"byteOffset":3336,
			"target":34962
		},
		{
			"buffer":0,
			"byteLength":1560,
			"byteOffset":4896,
			"target":34962
		},
		{
			"buffer":0,
			"byteLength":1040,
			"byteOffset":6456,
			"target":34962
		},
		{
			"buffer":0,
			"byteLength":1512,
			"byteOffset":7496,
			"target":34963
		},
		{
			"buffer":0,
			"byteLength":468,
			"byteOffset":9008,
			"target":34962
		},
		{
			"buffer":0,
			"byteLength":468,
			"byteOffset":9476,
			"target":34962
		},
		{
			"buffer":0,
			"byteLength":312,
			"byteOffset":9944,
			"target":34962
		},
		{
			"buffer":0,
			"byteLength":420,
			"byteOffset":10256,
			"target":34963
		}
	],
	"samplers":[
		{
			"magFilter":9729,
			"minFilter":9987
		}
	],
	"buffers":[
		{
			"byteLength":10676,
			"uri":"model12.bin"
		}
	]
}
